<?xml version="1.0" encoding="UTF-8"?>
<svg id="Layer_1" data-name="Layer 1" xmlns="http://www.w3.org/2000/svg" xmlns:xlink="http://www.w3.org/1999/xlink" viewBox="0 0 31 31">
  <defs>
    <style>
      .cls-1 {
        fill: none;
      }

      .cls-2 {
        clip-path: url(#clippath);
      }
    </style>
    <clipPath id="clippath">
      <rect class="cls-1" x="4.8" y="4.38" width="22" height="22"/>
    </clipPath>
  </defs>
  <g class="cls-2">
    <path d="M17.92,17.5c-1.73,1.78-1.85,4.01-2,8.88,4.54,0,7.68-.02,9.29-1.59,1.57-1.62,1.59-4.9,1.59-9.3-4.87,.16-7.09,.27-8.88,2Zm-13.12-2c0,4.39,.02,7.68,1.59,9.3,1.62,1.57,4.75,1.59,9.3,1.59-.16-4.87-.28-7.09-2-8.88-1.78-1.73-4.01-1.85-8.88-2ZM15.68,4.38c-4.53,0-7.68,.02-9.3,1.59-1.57,1.62-1.59,4.9-1.59,9.3,4.87-.16,7.1-.28,8.88-2,1.73-1.78,1.85-4.01,2-8.88Zm2.24,8.88c-1.73-1.78-1.85-4.01-2-8.88,4.54,0,7.68,.02,9.29,1.59,1.57,1.62,1.59,4.9,1.59,9.3-4.87-.16-7.09-.28-8.88-2Z"/>
  </g>
</svg>