<?xml version="1.0" encoding="UTF-8"?>
<svg id="Layer_1" data-name="Layer 1" xmlns="http://www.w3.org/2000/svg" viewBox="0 0 31 31">
  <path d="M5.78,13.59c6.52-2.92,10.87-4.85,13.04-5.78,6.21-2.66,7.5-3.12,8.34-3.14,.18,0,.6,.04,.87,.27,.23,.19,.29,.44,.32,.62,.03,.18,.07,.59,.04,.91-.34,3.64-1.79,12.47-2.53,16.55-.31,1.72-.93,2.3-1.53,2.36-1.3,.12-2.28-.88-3.54-1.73-1.97-1.33-3.08-2.15-4.99-3.45-2.21-1.5-.78-2.32,.48-3.67,.33-.35,6.05-5.71,6.16-6.19,.01-.06,.03-.29-.1-.41-.13-.12-.32-.08-.46-.05-.2,.05-3.34,2.19-9.43,6.42-.89,.63-1.7,.94-2.43,.92-.8-.02-2.33-.46-3.48-.85-1.4-.47-2.51-.72-2.42-1.51,.05-.41,.61-.84,1.66-1.27Z"/>
</svg>