<svg width="267" height="307" viewBox="0 0 267 307" fill="none" xmlns="http://www.w3.org/2000/svg">
<g filter="url(#filter0_i_242_3268)">
<path d="M258.359 245.789L232.849 220.28C228.178 215.608 220.604 215.608 215.932 220.28L190.423 245.789C185.751 250.461 185.751 258.035 190.423 262.706L215.932 288.216C220.604 292.887 228.178 292.887 232.849 288.216L258.359 262.706C263.03 258.035 263.03 250.461 258.359 245.789Z" fill="#FF5000"/>
</g>
<g filter="url(#filter1_d_242_3268)">
<path d="M242.463 263.015C243.873 260.652 243.685 256.906 242.027 254.644C240.302 252.341 238.449 250.14 236.515 248.018L241.429 248.018C242.477 248.018 243.329 247.166 243.329 246.119C243.329 245.071 242.477 244.219 241.429 244.219L234.421 244.219L234.421 237.21C234.421 236.163 233.568 235.311 232.521 235.311C231.474 235.311 230.621 236.163 230.621 237.21L230.621 242.124C228.493 240.184 226.285 238.338 223.975 236.606C221.733 234.955 217.987 234.767 215.604 236.197C210.623 239.271 206.535 243.359 203.44 248.361C202.031 250.724 202.219 254.47 203.877 256.732C206.448 260.149 209.247 263.378 212.255 266.385C215.262 269.393 218.498 272.199 221.908 274.763L221.921 274.776C224.17 276.421 227.916 276.609 230.292 275.186C235.274 272.111 239.362 268.023 242.456 263.022L242.463 263.015ZM228.332 271.937C227.285 272.568 225.197 272.454 224.19 271.715C217.645 266.795 211.832 260.981 206.931 254.456C206.193 253.449 206.079 251.348 206.689 250.321C209.448 245.843 213.12 242.171 217.578 239.432C218.625 238.801 220.726 238.915 221.713 239.647C224.989 242.104 228.084 244.796 230.97 247.683C233.857 250.569 236.536 253.651 238.986 256.906C239.724 257.913 239.838 260.014 239.228 261.042C236.468 265.519 232.796 269.191 228.339 271.93L228.332 271.937Z" fill="white"/>
</g>
<g filter="url(#filter2_i_242_3268)">
<path d="M74.795 64.6501L98.5611 139.114C102.913 152.75 117.496 160.277 131.132 155.924L205.596 132.158C219.232 127.806 226.758 113.224 222.406 99.5873L198.64 25.1234C194.288 11.4871 179.705 3.96087 166.069 8.31306L91.6053 32.0791C77.969 36.4313 70.4428 51.0139 74.795 64.6501Z" fill="#FF5000"/>
</g>
<g filter="url(#filter3_d_242_3268)">
<path d="M111.457 62.688C106.159 65.4369 101.821 72.4785 101.797 78.424C101.965 90.721 105.592 102.087 112.604 112.285C116.03 117.065 123.626 120.298 129.601 119.47C149.012 116.492 167.746 110.513 185.332 101.683C190.649 98.928 194.968 91.8926 194.992 85.9472C194.908 79.7987 193.969 73.8799 192.168 68.2363C190.367 62.5928 187.703 57.2244 184.21 52.1641L184.191 52.1053C180.746 47.3319 173.15 44.0991 167.18 44.9464C147.77 47.9243 129.036 53.9034 111.45 62.7334L111.457 62.688ZM168.378 53.0282C171.187 52.6283 175.852 54.5941 177.469 56.8201C183.498 65.5622 186.631 75.3797 186.769 85.959C186.766 88.7236 184.083 93.0348 181.601 94.3235C164.833 102.741 146.923 108.458 128.418 111.298C125.609 111.697 120.899 109.725 119.333 107.525C116.312 103.135 114.01 98.4929 112.447 93.5939C110.883 88.695 110.089 83.6368 110.001 78.3534C110.004 75.5887 112.687 71.2776 115.169 69.9888C131.937 61.5712 149.847 55.8548 168.352 53.0148L168.378 53.0282Z" fill="white"/>
<path d="M164.433 77.067C165.515 80.457 169.134 82.3248 172.524 81.2429C175.914 80.1609 177.782 76.5419 176.7 73.1518C175.618 69.7617 171.999 67.8939 168.609 68.9759C165.219 70.0579 163.351 73.6769 164.433 77.067Z" fill="white"/>
</g>
<g filter="url(#filter4_i_242_3268)">
<path d="M66.0907 187.131L17.1438 215.39C8.18037 220.566 5.10927 232.027 10.2843 240.99L38.5438 289.937C43.7189 298.901 55.1804 301.972 64.1438 296.797L113.091 268.537C122.054 263.362 125.125 251.901 119.95 242.937L91.6907 193.99C86.5157 185.027 75.0541 181.956 66.0907 187.131Z" fill="#FF5000"/>
</g>
<g filter="url(#filter5_d_242_3268)">
<path d="M71.4674 252.964C68.814 254.496 67.9177 257.882 69.4422 260.522C70.9668 263.163 74.3598 264.072 77.0003 262.547C79.6409 261.023 80.5501 257.63 79.0255 254.989C77.501 252.349 74.108 251.439 71.4674 252.964Z" fill="white"/>
<path d="M49.9357 253.716C49.5111 255.301 50.4555 256.937 52.0403 257.362C53.625 257.786 55.2609 256.842 55.6855 255.257C57.1336 249.853 60.6002 245.327 65.4434 242.53C70.2866 239.734 75.9395 238.995 81.344 240.443C82.1364 240.656 82.942 240.534 83.599 240.155C84.2559 239.775 84.764 239.138 84.9764 238.346C85.401 236.761 84.4565 235.125 82.8718 234.701C68.548 230.863 53.7609 239.4 49.9099 253.731L49.9357 253.716Z" fill="white"/>
<path d="M87.3539 218.014C75.9558 214.959 64.0488 216.527 53.8344 222.424C43.6199 228.322 36.3088 237.85 33.2547 249.248C32.8301 250.833 33.7745 252.468 35.3593 252.893C36.1517 253.105 36.9573 252.984 37.6143 252.604C38.2712 252.225 38.7794 251.588 38.9917 250.796C41.632 240.942 47.96 232.686 56.809 227.577C65.6581 222.468 75.9518 221.11 85.8261 223.756C87.4109 224.181 89.0467 223.236 89.4714 221.651C89.896 220.067 88.9515 218.431 87.3668 218.006L87.3539 218.014Z" fill="white"/>
</g>
<defs>
<filter id="filter0_i_242_3268" x="186.919" y="216.776" width="74.9434" height="78.9431" filterUnits="userSpaceOnUse" color-interpolation-filters="sRGB">
<feFlood flood-opacity="0" result="BackgroundImageFix"/>
<feBlend mode="normal" in="SourceGraphic" in2="BackgroundImageFix" result="shape"/>
<feColorMatrix in="SourceAlpha" type="matrix" values="0 0 0 0 0 0 0 0 0 0 0 0 0 0 0 0 0 0 127 0" result="hardAlpha"/>
<feOffset dy="4"/>
<feGaussianBlur stdDeviation="2"/>
<feComposite in2="hardAlpha" operator="arithmetic" k2="-1" k3="1"/>
<feColorMatrix type="matrix" values="0 0 0 0 0 0 0 0 0 0 0 0 0 0 0 0 0 0 0.25 0"/>
<feBlend mode="normal" in2="shape" result="effect1_innerShadow_242_3268"/>
</filter>
<filter id="filter1_d_242_3268" x="198.496" y="235.235" width="48.9111" height="48.9075" filterUnits="userSpaceOnUse" color-interpolation-filters="sRGB">
<feFlood flood-opacity="0" result="BackgroundImageFix"/>
<feColorMatrix in="SourceAlpha" type="matrix" values="0 0 0 0 0 0 0 0 0 0 0 0 0 0 0 0 0 0 127 0" result="hardAlpha"/>
<feOffset dy="4"/>
<feGaussianBlur stdDeviation="2"/>
<feComposite in2="hardAlpha" operator="out"/>
<feColorMatrix type="matrix" values="0 0 0 0 0 0 0 0 0 0 0 0 0 0 0 0 0 0 0.25 0"/>
<feBlend mode="normal" in2="BackgroundImageFix" result="effect1_dropShadow_242_3268"/>
<feBlend mode="normal" in="SourceGraphic" in2="effect1_dropShadow_242_3268" result="shape"/>
</filter>
<filter id="filter2_i_242_3268" x="73.5605" y="7.0791" width="150.08" height="154.079" filterUnits="userSpaceOnUse" color-interpolation-filters="sRGB">
<feFlood flood-opacity="0" result="BackgroundImageFix"/>
<feBlend mode="normal" in="SourceGraphic" in2="BackgroundImageFix" result="shape"/>
<feColorMatrix in="SourceAlpha" type="matrix" values="0 0 0 0 0 0 0 0 0 0 0 0 0 0 0 0 0 0 127 0" result="hardAlpha"/>
<feOffset dy="4"/>
<feGaussianBlur stdDeviation="2"/>
<feComposite in2="hardAlpha" operator="arithmetic" k2="-1" k3="1"/>
<feColorMatrix type="matrix" values="0 0 0 0 0 0 0 0 0 0 0 0 0 0 0 0 0 0 0.25 0"/>
<feBlend mode="normal" in2="shape" result="effect1_innerShadow_242_3268"/>
</filter>
<filter id="filter3_d_242_3268" x="97.7969" y="44.8115" width="101.195" height="82.7881" filterUnits="userSpaceOnUse" color-interpolation-filters="sRGB">
<feFlood flood-opacity="0" result="BackgroundImageFix"/>
<feColorMatrix in="SourceAlpha" type="matrix" values="0 0 0 0 0 0 0 0 0 0 0 0 0 0 0 0 0 0 127 0" result="hardAlpha"/>
<feOffset dy="4"/>
<feGaussianBlur stdDeviation="2"/>
<feComposite in2="hardAlpha" operator="out"/>
<feColorMatrix type="matrix" values="0 0 0 0 0 0 0 0 0 0 0 0 0 0 0 0 0 0 0.25 0"/>
<feBlend mode="normal" in2="BackgroundImageFix" result="effect1_dropShadow_242_3268"/>
<feBlend mode="normal" in="SourceGraphic" in2="effect1_dropShadow_242_3268" result="shape"/>
</filter>
<filter id="filter4_i_242_3268" x="7.77051" y="184.617" width="114.693" height="118.694" filterUnits="userSpaceOnUse" color-interpolation-filters="sRGB">
<feFlood flood-opacity="0" result="BackgroundImageFix"/>
<feBlend mode="normal" in="SourceGraphic" in2="BackgroundImageFix" result="shape"/>
<feColorMatrix in="SourceAlpha" type="matrix" values="0 0 0 0 0 0 0 0 0 0 0 0 0 0 0 0 0 0 127 0" result="hardAlpha"/>
<feOffset dy="4"/>
<feGaussianBlur stdDeviation="2"/>
<feComposite in2="hardAlpha" operator="arithmetic" k2="-1" k3="1"/>
<feColorMatrix type="matrix" values="0 0 0 0 0 0 0 0 0 0 0 0 0 0 0 0 0 0 0.25 0"/>
<feBlend mode="normal" in2="shape" result="effect1_innerShadow_242_3268"/>
</filter>
<filter id="filter5_d_242_3268" x="29.1533" y="216.489" width="64.4199" height="54.7974" filterUnits="userSpaceOnUse" color-interpolation-filters="sRGB">
<feFlood flood-opacity="0" result="BackgroundImageFix"/>
<feColorMatrix in="SourceAlpha" type="matrix" values="0 0 0 0 0 0 0 0 0 0 0 0 0 0 0 0 0 0 127 0" result="hardAlpha"/>
<feOffset dy="4"/>
<feGaussianBlur stdDeviation="2"/>
<feComposite in2="hardAlpha" operator="out"/>
<feColorMatrix type="matrix" values="0 0 0 0 0 0 0 0 0 0 0 0 0 0 0 0 0 0 0.25 0"/>
<feBlend mode="normal" in2="BackgroundImageFix" result="effect1_dropShadow_242_3268"/>
<feBlend mode="normal" in="SourceGraphic" in2="effect1_dropShadow_242_3268" result="shape"/>
</filter>
</defs>
</svg>
