<svg width="180" height="41" viewBox="0 0 180 41" fill="none" xmlns="http://www.w3.org/2000/svg">
<path d="M4.01246 29.2804C8.65897 36.2597 16.6456 40.4478 25.192 40.382C22.7658 37.0772 19.5931 34.3551 15.9183 32.4255C12.2533 30.4958 8.1763 29.4214 4.01246 29.2804ZM0.0996094 17.5147C0.266935 19.9361 0.772131 22.3231 1.60876 24.6098C5.81765 24.638 12.3015 26.1072 17.8136 29.0204C23.3257 31.9336 28.1492 36.3442 30.5207 39.7493C32.9341 39.1729 35.2541 38.2801 37.4197 37.096V8.31758C37.3972 3.91326 33.7128 0.360986 29.1886 0.382913C27.6086 0.389179 26.0641 0.843395 24.7416 1.68604L0.0996094 17.5147ZM30.2601 6.49759C30.5561 6.64482 31.0581 6.96121 31.0581 7.94168V31.4418C28.5707 28.325 25.0151 25.5872 20.8995 23.4226C16.7839 21.258 12.5171 19.9048 8.48842 19.6197L28.59 6.64169C29.0566 6.25012 29.7292 6.1906 30.2601 6.49446V6.49759ZM161.518 6.19687H173.504V1.52942H161.518V6.19687ZM179.1 10.4759V34.4365H173.504V15.513L164.311 34.4365H155.925V10.4759H161.521V29.3994L170.714 10.4759H179.1ZM135.379 10.0687C139.376 10.0687 142.372 11.8229 143.771 14.7392V10.4759H149.686V34.4365H143.771V30.1575C142.372 33.0739 139.295 34.8281 135.379 34.8281C129.388 34.8281 124.551 29.5404 124.551 22.4578C124.551 15.3752 129.388 10.0875 135.379 10.0875V10.0718V10.0687ZM137.139 15.2843C133.066 15.2843 130.453 18.3542 130.453 22.439C130.453 26.7556 133.291 29.5937 137.139 29.5937C141.178 29.5937 143.771 26.5238 143.771 22.439C143.771 18.3542 141.213 15.3 137.139 15.3V15.2843ZM115.04 15.7479V34.4209H109.125V15.7636H101.531V10.4759H122.63V15.7636L115.036 15.7479H115.04ZM93.9758 26.6178L98.928 29.2616C97.0907 32.9956 93.0781 34.9565 88.1419 34.9565C81.037 34.9565 75.9143 29.7847 75.9143 22.4703C75.9143 15.1559 80.7088 10.0217 88.1419 10.0217C95.5751 10.0217 99.9255 15.1966 99.9255 22.4703C99.9384 23.1187 99.9127 23.7703 99.8451 24.4156H81.7514C82.3499 27.6452 84.5058 29.9006 88.3833 29.9006C90.7484 29.979 92.9429 28.6915 93.9758 26.6178ZM88.1259 15.0274C84.6506 15.0274 82.4078 16.9727 81.7707 20.1209H94.0788C93.6605 16.9727 91.6204 15.0274 88.1484 15.0274H88.1291H88.1259ZM66.8884 10.4759H57.5181L49.9659 34.4365H55.758L62.0262 13.978L68.2945 34.4365H74.4502L66.8851 10.4759H66.8884Z" fill="white"/>
</svg>
