<svg width="62" height="56" viewBox="0 0 62 56" fill="none" xmlns="http://www.w3.org/2000/svg">
<path d="M31.2643 54.5928L31.2379 54.6098C31.0815 54.6963 30.887 54.6907 30.7356 54.5931L30.7351 54.5928C30.3968 54.375 21.9132 48.8776 14.0339 40.9473C9.36779 36.251 5.93256 31.7092 3.79243 27.4584C1.03413 21.9796 0.426465 16.988 1.82172 12.5611L1.82178 12.5612L1.82494 12.5507C2.73748 9.54148 4.65201 6.81419 7.20903 4.89747C9.85591 2.91579 13.0059 1.86768 16.3309 1.86768C22.6562 1.86768 26.3921 5.68281 30.2763 9.76388L30.9991 10.5233L31.7235 9.7655C35.6513 5.65705 39.4633 1.86768 45.6685 1.86768C48.9937 1.86768 52.1455 2.9159 54.7901 4.89727C57.3449 6.81174 59.2579 9.53513 60.1766 12.5591L60.1765 12.5591L60.1796 12.5689C61.5729 16.9917 60.9653 21.9814 58.207 27.4582L58.2069 27.4585C56.0668 31.7113 52.6336 36.251 47.9656 40.9472L47.9655 40.9473C40.0862 48.8776 31.6026 54.375 31.2643 54.5928Z" stroke="white" stroke-width="2" stroke-miterlimit="10"/>
<path d="M51.583 18.9708C50.6653 15.9438 48.6677 13.347 45.96 11.6577" stroke="white" stroke-width="2" stroke-miterlimit="10" stroke-linecap="round"/>
</svg>
