<svg width="180" height="40" viewBox="0 0 180 40" fill="none" xmlns="http://www.w3.org/2000/svg">
    <g filter="url(#filter0_i_242_3481)">
        <path
            d="M3.92652 28.8976C8.57303 35.8768 16.5596 40.065 25.1061 39.9992C22.6799 36.6944 19.5071 33.9723 15.8324 32.0426C12.1673 30.113 8.09036 29.0386 3.92652 28.8976ZM0.0136719 17.1318C0.180998 19.5533 0.686194 21.9403 1.52282 24.227C5.73171 24.2552 12.2156 25.7243 17.7277 28.6376C23.2398 31.5508 28.0633 35.9614 30.4348 39.3665C32.8481 38.7901 35.1682 37.8973 37.3338 36.7132V7.93477C37.3112 3.53045 33.6269 -0.0218267 29.1026 0.000100973C27.5227 0.00636601 25.9781 0.460582 24.6556 1.30323L0.0136719 17.1318ZM30.1742 6.11478C30.4702 6.26201 30.9722 6.57839 30.9722 7.55887V31.059C28.4848 27.9422 24.9291 25.2043 20.8136 23.0398C16.698 20.8752 12.4312 19.522 8.40249 19.2369L28.5041 6.25888C28.9707 5.86731 29.6432 5.80779 30.1742 6.11165V6.11478ZM161.432 5.81406H173.418V1.1466H161.432V5.81406ZM179.014 10.0931V34.0537H173.418V15.1302L164.225 34.0537H155.839V10.0931H161.435V29.0166L170.628 10.0931H179.014ZM135.293 9.68585C139.29 9.68585 142.286 11.4401 143.685 14.3564V10.0931H149.6V34.0537H143.685V29.7747C142.286 32.6911 139.209 34.4453 135.293 34.4453C129.302 34.4453 124.465 29.1576 124.465 22.075C124.465 14.9923 129.302 9.70465 135.293 9.70465V9.68898V9.68585ZM137.054 14.9015C132.98 14.9015 130.367 17.9714 130.367 22.0562C130.367 26.3728 133.205 29.2108 137.054 29.2108C141.092 29.2108 143.685 26.141 143.685 22.0562C143.685 17.9714 141.127 14.9172 137.054 14.9172V14.9015ZM114.954 15.3651V34.0381H109.039V15.3808H101.445V10.0931H122.544V15.3808L114.95 15.3651H114.954ZM93.8899 26.235L98.8421 28.8788C97.0047 32.6128 92.9921 34.5737 88.056 34.5737C80.9511 34.5737 75.8284 29.4019 75.8284 22.0875C75.8284 14.7731 80.6229 9.63886 88.056 9.63886C95.4891 9.63886 99.8396 14.8138 99.8396 22.0875C99.8525 22.7359 99.8267 23.3875 99.7592 24.0328H81.6655C82.264 27.2624 84.4199 29.5178 88.2973 29.5178C90.6624 29.5961 92.857 28.3087 93.8899 26.235ZM88.0399 14.6446C84.5647 14.6446 82.3219 16.5899 81.6848 19.7381H93.9929C93.5745 16.5899 91.5345 14.6446 88.0624 14.6446H88.0431H88.0399ZM66.8024 10.0931H57.4322L49.88 34.0537H55.672L61.9403 13.5952L68.2086 34.0537H74.3643L66.7992 10.0931H66.8024Z"
            fill="#FF5000" />
    </g>
    <defs>
        <filter id="filter0_i_242_3481" x="0.0136719" y="0" width="179" height="44" filterUnits="userSpaceOnUse"
            color-interpolation-filters="sRGB">
            <feFlood flood-opacity="0" result="BackgroundImageFix" />
            <feBlend mode="normal" in="SourceGraphic" in2="BackgroundImageFix" result="shape" />
            <feColorMatrix in="SourceAlpha" type="matrix" values="0 0 0 0 0 0 0 0 0 0 0 0 0 0 0 0 0 0 127 0"
                result="hardAlpha" />
            <feOffset dy="4" />
            <feGaussianBlur stdDeviation="2" />
            <feComposite in2="hardAlpha" operator="arithmetic" k2="-1" k3="1" />
            <feColorMatrix type="matrix" values="0 0 0 0 0 0 0 0 0 0 0 0 0 0 0 0 0 0 0.25 0" />
            <feBlend mode="normal" in2="shape" result="effect1_innerShadow_242_3481" />
        </filter>
    </defs>
</svg>